<svg width="187" height="58" viewBox="0 0 187 58" fill="none" xmlns="http://www.w3.org/2000/svg">
<path d="M34.3421 0H23.6579C10.592 0 0 10.592 0 23.6579V34.3421C0 47.408 10.592 58 23.6579 58H34.3421C47.408 58 58 47.408 58 34.3421V23.6579C58 10.592 47.408 0 34.3421 0Z" fill="#292555"/>
<path fill-rule="evenodd" clip-rule="evenodd" d="M17.2852 12.6875H32.8655H38.0264V23.9896H32.8655V16.7982H17.2852V12.6875ZM38.0264 33.9525H32.8655V41.1955H17.2852V45.3061H32.8655V45.3126H38.0264V33.9525ZM30.5429 26.9538V31.0868H21.4604V26.9538H30.5429Z" fill="#292555"/>
<path fill-rule="evenodd" clip-rule="evenodd" d="M19 12.6875H34.5804H39.7412V23.9896H34.5804V16.7982H19V12.6875ZM39.7412 33.9525H34.5804V41.1955H19V45.3061H34.5804V45.3126H39.7412V33.9525ZM32.2578 26.9538V31.0868H23.1752V26.9538H32.2578Z" fill="#F1F7FF"/>
<path d="M80.0644 17.2602H71.1172V13.0469H93.8563V17.2602H84.8697V45.0139H80.0644V17.2602Z" fill="#292555"/>
<path d="M165.301 40.8779L168.118 37.4018C170.313 39.7041 173.294 41.1808 176.236 41.1808C179.922 41.1808 181.994 39.3561 181.994 36.6664C181.994 33.7565 179.922 32.8442 177.105 31.5407L172.88 29.6296C169.94 28.3262 166.668 25.894 166.668 21.2462C166.668 16.2071 170.892 12.4282 176.692 12.4282C178.409 12.4318 180.108 12.7905 181.694 13.4838C183.278 14.1771 184.717 15.1914 185.927 16.4685L183.402 19.6831C181.497 17.9019 179.384 16.8165 176.692 16.8165C173.585 16.8165 171.555 18.3796 171.555 20.9415C171.555 23.6783 173.999 24.7204 176.484 25.7642L180.668 27.6321C184.272 29.2384 186.882 31.5822 186.882 36.2752C186.882 41.4007 182.822 45.5708 176.153 45.5708C174.139 45.5816 172.141 45.1723 170.279 44.3666C168.415 43.561 166.723 42.3751 165.301 40.8779Z" fill="#292555"/>
<path d="M121.19 44.9331L113.297 32.0354H107.681V44.9331H102.201V12.9736H113.584C120.759 12.9736 126.151 15.3191 126.151 22.2224C126.151 27.1731 123.268 30.1224 118.876 31.3846L127.378 44.9276L121.19 44.9331ZM107.681 28.0044H112.924C117.979 28.0044 120.718 26.0933 120.718 22.228C120.718 18.3626 117.979 17.0177 112.924 17.0177H107.681V28.0044Z" fill="#292555"/>
<path fill-rule="evenodd" clip-rule="evenodd" d="M156.504 13.0537V24.1495H151.67V17.0903H137.08V13.0537H156.504ZM156.504 33.9108V45.0631H137.08V41.0264H151.67V33.9108H156.504ZM149.521 27.0498V31.1052H141.016V27.0498H149.521Z" fill="#292555"/>
</svg>
